<svg xmlns="http://www.w3.org/2000/svg" version="1.1" viewBox="0.00 0.00 1000.00 565.00" width="1000.00" height="565.00">


<path fill="#04508c" d="&#10;  M 781.84 515.78&#10;  A 0.40 0.40 0.0 0 0 781.33 516.17&#10;  L 781.33 519.66&#10;  A 0.45 0.45 0.0 0 1 780.88 520.11&#10;  L 778.78 520.11&#10;  A 0.53 0.53 0.0 0 1 778.25 519.58&#10;  L 778.25 503.40&#10;  A 0.36 0.36 0.0 0 1 778.86 503.14&#10;  Q 785.88 509.89 794.35 506.70&#10;  C 807.11 501.89 805.82 484.06 793.12 480.14&#10;  C 787.99 478.56 782.31 480.23 778.81 484.33&#10;  A 0.32 0.32 0.0 0 1 778.25 484.12&#10;  L 778.25 473.30&#10;  A 0.72 0.72 0.0 0 1 778.79 472.60&#10;  C 780.33 472.18 781.98 471.15 783.91 470.78&#10;  Q 795.45 468.57 803.83 475.27&#10;  C 817.25 486.00 814.90 506.55 799.89 514.33&#10;  Q 791.80 518.52 781.84 515.78&#10;  Z"/>
<path fill="#04508c" d="&#10;  M 834.24 480.06&#10;  L 843.35 480.06&#10;  A 0.95 0.94 -0.0 0 1 844.30 481.00&#10;  L 844.30 481.80&#10;  A 0.95 0.95 0.0 0 1 843.35 482.75&#10;  L 837.07 482.75&#10;  A 0.46 0.46 0.0 0 0 836.63 483.33&#10;  Q 838.46 489.89 843.33 493.08&#10;  A 2.28 2.26 -73.5 0 1 844.35 494.98&#10;  L 844.35 495.75&#10;  A 0.97 0.97 0.0 0 1 842.87 496.57&#10;  Q 835.19 491.83 833.36 483.08&#10;  A 0.23 0.23 0.0 0 0 832.91 483.06&#10;  L 831.75 487.21&#10;  A 1.03 0.99 38.9 0 0 831.85 488.00&#10;  L 834.99 493.44&#10;  A 0.67 0.67 0.0 0 1 834.41 494.44&#10;  L 832.15 494.44&#10;  A 1.03 1.02 80.9 0 1 831.18 493.73&#10;  L 830.31 491.07&#10;  A 0.33 0.33 0.0 0 0 829.72 490.98&#10;  Q 826.75 495.12 822.10 496.89&#10;  A 0.24 0.24 0.0 0 1 821.77 496.67&#10;  L 821.77 494.26&#10;  A 0.57 0.56 -14.0 0 1 822.08 493.76&#10;  Q 828.22 490.49 829.67 483.27&#10;  A 0.45 0.45 0.0 0 0 829.23 482.73&#10;  L 822.52 482.73&#10;  A 0.76 0.76 0.0 0 1 821.76 481.97&#10;  L 821.76 480.82&#10;  A 0.75 0.75 0.0 0 1 822.51 480.07&#10;  L 830.04 480.07&#10;  A 0.64 0.64 0.0 0 0 830.68 479.43&#10;  L 830.68 475.31&#10;  A 0.50 0.50 0.0 0 1 831.18 474.81&#10;  L 833.37 474.81&#10;  A 0.42 0.42 0.0 0 1 833.79 475.23&#10;  L 833.79 479.61&#10;  A 0.45 0.45 0.0 0 0 834.24 480.06&#10;  Z"/>
<path fill="#04508c" d="&#10;  M 887.73 477.72&#10;  Q 888.86 477.72 889.29 477.72&#10;  A 0.90 0.90 0.0 0 0 890.12 477.16&#10;  L 890.93 475.21&#10;  A 0.66 0.64 10.4 0 1 891.54 474.80&#10;  L 893.57 474.80&#10;  A 0.44 0.44 0.0 0 1 893.98 475.40&#10;  L 893.26 477.14&#10;  A 0.43 0.42 11.3 0 0 893.66 477.73&#10;  L 895.00 477.73&#10;  A 0.63 0.63 0.0 0 1 895.63 478.36&#10;  L 895.63 479.77&#10;  A 0.62 0.62 0.0 0 1 895.01 480.39&#10;  L 889.86 480.39&#10;  A 0.57 0.57 0.0 0 0 889.29 480.96&#10;  L 889.29 482.99&#10;  A 0.59 0.59 0.0 0 0 889.88 483.58&#10;  L 894.57 483.58&#10;  A 0.60 0.60 0.0 0 1 895.17 484.18&#10;  L 895.17 485.55&#10;  A 0.68 0.68 0.0 0 1 894.49 486.23&#10;  L 889.83 486.23&#10;  A 0.55 0.55 0.0 0 0 889.28 486.78&#10;  L 889.28 489.32&#10;  A 0.57 0.56 -0.0 0 0 889.85 489.88&#10;  L 895.30 489.88&#10;  A 1.06 1.06 0.0 0 1 896.36 490.94&#10;  L 896.36 491.41&#10;  A 1.05 1.05 0.0 0 1 895.31 492.46&#10;  L 889.91 492.46&#10;  A 0.61 0.61 0.0 0 0 889.30 493.07&#10;  L 889.30 496.83&#10;  A 0.59 0.58 -4.3 0 1 888.80 497.40&#10;  Q 888.46 497.46 887.74 497.46&#10;  Q 887.03 497.46 886.69 497.41&#10;  A 0.59 0.58 4.2 0 1 886.19 496.83&#10;  L 886.18 493.07&#10;  A 0.61 0.61 0.0 0 0 885.57 492.46&#10;  L 880.17 492.47&#10;  A 1.05 1.05 0.0 0 1 879.12 491.43&#10;  L 879.11 490.96&#10;  A 1.06 1.06 0.0 0 1 880.17 489.89&#10;  L 885.62 489.88&#10;  A 0.57 0.56 -0.1 0 0 886.19 489.32&#10;  L 886.19 486.78&#10;  A 0.55 0.55 0.0 0 0 885.64 486.23&#10;  L 880.98 486.24&#10;  A 0.68 0.68 0.0 0 1 880.29 485.56&#10;  L 880.29 484.19&#10;  A 0.60 0.60 0.0 0 1 880.89 483.59&#10;  L 885.58 483.58&#10;  A 0.59 0.59 0.0 0 0 886.17 482.99&#10;  L 886.17 480.96&#10;  A 0.57 0.57 0.0 0 0 885.60 480.39&#10;  L 880.45 480.40&#10;  A 0.62 0.62 0.0 0 1 879.82 479.78&#10;  L 879.82 478.37&#10;  A 0.63 0.63 0.0 0 1 880.45 477.74&#10;  L 881.79 477.74&#10;  A 0.43 0.42 -11.4 0 0 882.19 477.15&#10;  L 881.47 475.41&#10;  A 0.44 0.44 0.0 0 1 881.87 474.81&#10;  L 883.90 474.81&#10;  A 0.66 0.64 -10.5 0 1 884.52 475.22&#10;  L 885.33 477.16&#10;  A 0.90 0.90 0.0 0 0 886.16 477.72&#10;  Q 886.59 477.72 887.73 477.72&#10;  Z"/>
<path fill="#04508c" d="&#10;  M 775.21 475.37&#10;  L 775.21 519.72&#10;  A 0.37 0.37 0.0 0 1 774.84 520.09&#10;  L 766.22 520.09&#10;  A 0.39 0.39 0.0 0 1 765.83 519.70&#10;  Q 765.86 503.22 765.81 500.15&#10;  Q 765.65 490.03 766.91 486.46&#10;  Q 769.38 479.52 774.58 475.08&#10;  A 0.38 0.38 0.0 0 1 775.21 475.37&#10;  Z"/>
<path fill="#04508c" d="&#10;  M 858.69 475.09&#10;  Q 867.65 475.08 868.14 475.06&#10;  A 0.79 0.79 0.0 0 1 868.97 475.85&#10;  L 868.97 476.97&#10;  A 0.79 0.78 90.0 0 1 868.19 477.76&#10;  L 860.66 477.76&#10;  A 0.37 0.36 90.0 0 0 860.30 478.13&#10;  L 860.30 487.38&#10;  A 0.31 0.31 0.0 0 0 860.61 487.69&#10;  L 869.29 487.69&#10;  A 0.79 0.78 -90.0 0 1 870.07 488.48&#10;  L 870.07 489.65&#10;  A 0.94 0.94 0.0 0 1 869.13 490.59&#10;  L 860.87 490.59&#10;  A 0.57 0.57 0.0 0 0 860.30 491.16&#10;  L 860.30 496.63&#10;  A 0.82 0.82 0.0 0 1 859.53 497.45&#10;  Q 859.23 497.47 858.70 497.47&#10;  Q 858.17 497.47 857.88 497.45&#10;  A 0.82 0.82 0.0 0 1 857.10 496.63&#10;  L 857.10 491.16&#10;  A 0.57 0.57 0.0 0 0 856.53 490.59&#10;  L 848.27 490.60&#10;  A 0.94 0.94 0.0 0 1 847.32 489.67&#10;  L 847.32 488.50&#10;  A 0.79 0.78 89.9 0 1 848.10 487.70&#10;  L 856.78 487.69&#10;  A 0.31 0.31 0.0 0 0 857.09 487.38&#10;  L 857.08 478.13&#10;  A 0.37 0.36 89.9 0 0 856.72 477.76&#10;  L 849.19 477.77&#10;  A 0.79 0.78 89.9 0 1 848.41 476.98&#10;  L 848.41 475.86&#10;  A 0.79 0.79 0.0 0 1 849.23 475.07&#10;  Q 849.73 475.09 858.69 475.09&#10;  Z"/>
<path fill="#04508c" d="&#10;  M 874.85 478.16&#10;  Q 873.62 475.79 873.53 475.59&#10;  A 0.47 0.47 0.0 0 1 873.86 474.95&#10;  C 876.09 474.49 876.69 475.41 877.59 477.10&#10;  Q 878.75 479.49 878.84 479.69&#10;  A 0.47 0.47 0.0 0 1 878.51 480.34&#10;  C 876.29 480.80 875.69 479.88 874.85 478.16&#10;  Z"/>
<path fill="#04508c" d="&#10;  M 902.37 484.11&#10;  A 0.23 0.23 0.0 0 0 901.98 483.94&#10;  Q 901.04 484.80 899.74 485.38&#10;  A 0.44 0.43 78.1 0 1 899.13 484.98&#10;  L 899.13 482.92&#10;  A 0.96 0.95 73.7 0 1 899.56 482.12&#10;  Q 903.08 479.73 904.14 475.92&#10;  A 1.18 1.17 -82.2 0 1 905.27 475.06&#10;  L 906.54 475.06&#10;  A 0.84 0.84 0.0 0 1 907.32 476.22&#10;  L 905.43 480.80&#10;  A 1.92 1.84 56.8 0 0 905.30 481.49&#10;  L 905.30 496.21&#10;  A 0.94 0.94 0.0 0 1 904.36 497.15&#10;  L 903.25 497.15&#10;  A 0.88 0.88 0.0 0 1 902.37 496.27&#10;  L 902.37 484.11&#10;  Z"/>
<path fill="#04508c" d="&#10;  M 912.95 488.44&#10;  A 0.17 0.17 0.0 0 0 912.62 488.43&#10;  Q 911.28 495.01 907.36 496.93&#10;  A 0.44 0.44 0.0 0 1 906.75 496.67&#10;  Q 906.04 494.54 907.52 493.29&#10;  Q 908.82 492.19 909.77 488.63&#10;  A 0.58 0.57 7.3 0 0 909.21 487.91&#10;  L 907.31 487.91&#10;  A 0.77 0.76 -0.0 0 1 906.54 487.15&#10;  L 906.54 485.99&#10;  A 0.75 0.75 0.0 0 1 907.29 485.24&#10;  L 912.40 485.24&#10;  A 0.67 0.66 87.2 0 0 913.06 484.51&#10;  L 913.04 484.24&#10;  A 0.52 0.52 0.0 0 0 912.52 483.76&#10;  L 908.99 483.76&#10;  A 0.84 0.84 0.0 0 1 908.15 482.92&#10;  L 908.15 476.04&#10;  A 0.98 0.98 0.0 0 1 909.13 475.06&#10;  L 920.81 475.06&#10;  A 0.66 0.65 -1.8 0 1 921.47 475.67&#10;  C 921.63 478.36 921.93 483.46 917.79 483.70&#10;  Q 916.90 483.75 916.31 483.84&#10;  A 0.58 0.57 86.0 0 0 915.82 484.41&#10;  L 915.82 484.80&#10;  A 0.44 0.44 0.0 0 0 916.26 485.24&#10;  L 922.02 485.24&#10;  A 0.60 0.60 0.0 0 1 922.62 485.84&#10;  L 922.62 487.29&#10;  A 0.58 0.58 0.0 0 1 922.04 487.87&#10;  L 919.79 487.87&#10;  A 0.47 0.47 0.0 0 0 919.33 488.42&#10;  Q 919.82 491.46 921.79 493.52&#10;  C 922.70 494.47 922.86 495.48 922.55 496.53&#10;  A 0.55 0.55 0.0 0 1 921.78 496.86&#10;  C 918.44 495.17 917.07 491.74 916.49 488.12&#10;  A 0.29 0.29 0.0 0 0 915.92 488.17&#10;  L 915.92 496.03&#10;  A 1.14 1.14 0.0 0 1 914.78 497.17&#10;  L 914.22 497.17&#10;  A 1.34 1.33 -88.8 0 1 912.89 495.77&#10;  Q 913.19 489.89 912.95 488.44&#10;  Z&#10;  M 911.40 481.18&#10;  L 916.52 481.18&#10;  A 1.79 1.79 0.0 0 0 918.24 479.88&#10;  L 918.55 478.78&#10;  A 0.89 0.88 -82.1 0 0 917.70 477.65&#10;  L 911.53 477.65&#10;  A 0.42 0.42 0.0 0 0 911.11 478.07&#10;  L 911.11 480.89&#10;  A 0.29 0.29 0.0 0 0 911.40 481.18&#10;  Z"/>
<path fill="#04508c" d="&#10;  M 932.03 478.45&#10;  A 0.66 0.65 -82.2 0 0 931.40 477.62&#10;  L 930.49 477.62&#10;  A 0.70 0.70 0.0 0 0 929.79 478.32&#10;  L 929.79 496.18&#10;  A 1.00 1.00 0.0 0 1 928.79 497.18&#10;  L 928.13 497.18&#10;  A 1.15 1.15 0.0 0 1 926.98 496.03&#10;  L 926.98 475.79&#10;  A 0.71 0.71 0.0 0 1 927.69 475.08&#10;  L 934.22 475.08&#10;  A 0.79 0.79 0.0 0 1 935.01 475.80&#10;  Q 935.29 479.27 933.59 482.38&#10;  A 1.39 1.39 0.0 0 0 933.55 483.62&#10;  Q 935.30 487.47 934.11 492.12&#10;  A 1.59 1.58 -82.6 0 1 932.58 493.31&#10;  L 931.81 493.31&#10;  A 0.91 0.91 0.0 0 1 930.94 492.12&#10;  Q 932.36 487.75 930.70 483.58&#10;  A 0.53 0.50 43.3 0 1 930.68 483.24&#10;  L 932.03 478.45&#10;  Z"/>
<path fill="#04508c" d="&#10;  M 948.98 483.73&#10;  L 948.98 484.24&#10;  A 0.78 0.78 0.0 0 1 947.77 484.89&#10;  Q 943.84 482.23 942.14 478.25&#10;  A 1.26 1.26 0.0 0 0 939.78 478.38&#10;  Q 938.71 481.90 936.12 484.46&#10;  A 0.90 0.89 -37.0 0 1 934.72 484.27&#10;  L 934.55 483.99&#10;  A 1.41 1.41 0.0 0 1 934.71 482.36&#10;  Q 936.93 479.81 937.60 475.66&#10;  A 0.70 0.69 4.3 0 1 938.29 475.07&#10;  L 943.45 475.07&#10;  A 0.82 0.82 0.0 0 1 944.24 475.67&#10;  Q 945.29 479.44 948.01 481.66&#10;  A 2.70 2.66 -70.5 0 1 948.98 483.73&#10;  Z"/>
<path fill="#ffffff" d="&#10;  M 911.40 481.18&#10;  A 0.29 0.29 0.0 0 1 911.11 480.89&#10;  L 911.11 478.07&#10;  A 0.42 0.42 0.0 0 1 911.53 477.65&#10;  L 917.70 477.65&#10;  A 0.89 0.88 -82.1 0 1 918.55 478.78&#10;  L 918.24 479.88&#10;  A 1.79 1.79 0.0 0 1 916.52 481.18&#10;  L 911.40 481.18&#10;  Z"/>
<path fill="#04508c" d="&#10;  M 850.29 479.16&#10;  L 852.17 479.16&#10;  A 0.85 0.85 0.0 0 1 852.98 479.75&#10;  L 854.89 485.62&#10;  A 0.60 0.60 0.0 0 1 854.32 486.40&#10;  L 852.87 486.40&#10;  A 1.60 1.59 80.9 0 1 851.36 485.30&#10;  L 849.65 480.04&#10;  A 0.68 0.67 81.1 0 1 850.29 479.16&#10;  Z"/>
<path fill="#04508c" d="&#10;  M 867.06 479.15&#10;  A 0.68 0.68 0.0 0 1 867.70 480.04&#10;  L 865.95 485.32&#10;  A 1.60 1.59 -80.6 0 1 864.42 486.41&#10;  L 862.97 486.41&#10;  A 0.60 0.60 0.0 0 1 862.40 485.62&#10;  L 864.35 479.73&#10;  A 0.86 0.85 9.3 0 1 865.17 479.14&#10;  L 867.06 479.15&#10;  Z"/>
<path fill="#04508c" d="&#10;  M 874.95 484.27&#10;  Q 873.68 481.93 873.59 481.73&#10;  A 0.47 0.46 71.4 0 1 873.91 481.08&#10;  C 876.13 480.59 876.74 481.49 877.67 483.17&#10;  Q 878.87 485.53 878.97 485.73&#10;  A 0.47 0.46 71.4 0 1 878.64 486.38&#10;  C 876.43 486.88 875.82 485.97 874.95 484.27&#10;  Z"/>
<rect fill="#04508c" x="-3.09" y="-1.22" transform="translate(941.37,483.44) rotate(0.3)" width="6.18" height="2.44" rx="0.70"/>
<path fill="#04508c" d="&#10;  M 783.12 493.65&#10;  C 783.16 500.44 792.21 501.93 795.01 495.65&#10;  A 1.05 1.04 11.9 0 1 795.96 495.04&#10;  L 799.37 495.04&#10;  A 0.46 0.46 0.0 0 1 799.83 495.58&#10;  C 797.66 508.41 778.49 506.74 778.40 493.68&#10;  C 778.32 480.62 797.47 478.70 799.80 491.50&#10;  A 0.46 0.46 0.0 0 1 799.35 492.05&#10;  L 795.94 492.09&#10;  A 1.05 1.04 -12.7 0 1 794.98 491.49&#10;  C 792.10 485.26 783.08 486.86 783.12 493.65&#10;  Z"/>
<rect fill="#04508c" x="-1.28" y="-3.65" transform="translate(937.54,489.57) rotate(-9.1)" width="2.56" height="7.30" rx="0.70"/>
<path fill="#04508c" d="&#10;  M 943.38 491.77&#10;  L 944.83 486.61&#10;  A 0.64 0.64 0.0 0 1 945.45 486.14&#10;  L 946.87 486.14&#10;  A 0.58 0.57 -82.3 0 1 947.42 486.87&#10;  L 945.49 493.72&#10;  A 0.51 0.51 0.0 0 0 945.90 494.36&#10;  Q 946.79 494.50 947.82 494.28&#10;  A 0.94 0.93 84.2 0 1 948.94 495.20&#10;  L 948.94 496.07&#10;  A 0.95 0.95 0.0 0 1 947.99 497.02&#10;  L 934.58 497.02&#10;  A 0.70 0.70 0.0 0 1 933.88 496.32&#10;  L 933.88 495.01&#10;  A 0.67 0.66 -0.0 0 1 934.55 494.35&#10;  L 942.17 494.35&#10;  A 0.35 0.35 0.0 0 0 942.51 494.09&#10;  L 942.66 493.55&#10;  A 0.37 0.36 3.5 0 0 942.25 493.09&#10;  L 941.29 493.25&#10;  A 0.77 0.76 81.0 0 1 940.42 492.61&#10;  L 939.46 486.65&#10;  A 0.48 0.48 0.0 0 1 939.93 486.10&#10;  L 941.43 486.10&#10;  A 0.77 0.76 85.1 0 1 942.18 486.74&#10;  L 942.98 491.75&#10;  A 0.21 0.20 -41.7 0 0 943.38 491.77&#10;  Z"/>
<path fill="#04508c" d="&#10;  M 879.07 488.63&#10;  L 877.09 495.68&#10;  A 2.07 2.06 -81.9 0 1 875.11 497.18&#10;  L 874.41 497.18&#10;  A 0.74 0.74 0.0 0 1 873.70 496.24&#10;  L 875.90 488.42&#10;  A 0.99 0.98 7.7 0 1 876.85 487.70&#10;  L 878.37 487.70&#10;  A 0.73 0.73 0.0 0 1 879.07 488.63&#10;  Z"/>
<path fill="#04508c" d="&#10;  M 840.54 511.78&#10;  L 840.54 511.43&#10;  A 0.72 0.71 -87.8 0 1 841.31 510.71&#10;  Q 845.33 511.01 845.26 507.14&#10;  A 1.82 1.79 27.7 0 0 844.94 506.15&#10;  Q 843.74 504.38 840.57 505.00&#10;  A 0.77 0.76 84.5 0 0 839.96 505.75&#10;  L 839.96 516.09&#10;  A 0.88 0.88 0.0 0 1 839.08 516.97&#10;  L 837.94 516.97&#10;  A 1.02 1.02 0.0 0 1 836.92 515.95&#10;  L 836.92 503.67&#10;  A 0.77 0.77 0.0 0 1 837.53 502.92&#10;  C 840.40 502.30 845.57 501.84 847.51 504.59&#10;  C 850.48 508.79 846.65 513.30 841.90 513.18&#10;  A 1.40 1.40 0.0 0 1 840.54 511.78&#10;  Z"/>
<path fill="#04508c" d="&#10;  M 825.19 510.01&#10;  C 825.40 513.84 828.87 515.38 832.30 514.15&#10;  A 0.95 0.94 -16.4 0 1 833.54 514.82&#10;  L 833.58 514.98&#10;  A 1.14 1.14 0.0 0 1 832.81 516.32&#10;  C 827.51 517.98 822.26 516.10 821.94 510.19&#10;  C 821.63 504.27 826.65 501.85 832.10 502.93&#10;  A 1.14 1.14 0.0 0 1 833.00 504.18&#10;  L 832.98 504.35&#10;  A 0.95 0.94 10.3 0 1 831.82 505.15&#10;  C 828.28 504.28 824.99 506.18 825.19 510.01&#10;  Z"/>
<rect fill="#04508c" x="851.80" y="502.70" width="3.04" height="14.20" rx="0.78"/>
<path fill="#04508c" d="&#10;  M 858.38 510.24&#10;  C 858.01 504.33 863.00 501.87 868.45 502.91&#10;  A 1.14 1.14 0.0 0 1 869.37 504.15&#10;  L 869.34 504.31&#10;  A 0.95 0.94 9.8 0 1 868.19 505.12&#10;  C 864.65 504.29 861.38 506.21 861.62 510.03&#10;  C 861.86 513.86 865.33 515.36 868.75 514.10&#10;  A 0.95 0.94 -16.9 0 1 869.99 514.76&#10;  L 870.03 514.92&#10;  A 1.14 1.14 0.0 0 1 869.28 516.26&#10;  C 864.00 517.96 858.74 516.14 858.38 510.24&#10;  Z"/>
</svg>